<svg xmlns="http://www.w3.org/2000/svg" xmlns:xlink="http://www.w3.org/1999/xlink" width="500" zoomAndPan="magnify" viewBox="0 0 375 374.999991" height="500" preserveAspectRatio="xMidYMid meet" version="1.0"><defs><g/><clipPath id="8ab0ef0b68"><path d="M 123.390625 86.21875 L 251.640625 86.21875 L 251.640625 214.46875 L 123.390625 214.46875 Z M 123.390625 86.21875 " clip-rule="nonzero"/></clipPath></defs><rect x="-37.5" width="450" fill="#ffffff" y="-37.499999" height="449.999989" fill-opacity="1"/><rect x="-37.5" width="450" fill="#ffffff" y="-37.499999" height="449.999989" fill-opacity="1"/><rect x="-37.5" width="450" fill="#000000" y="-37.499999" height="449.999989" fill-opacity="1"/><g clip-path="url(#8ab0ef0b68)"><path fill="#ffffff" d="M 187.515625 86.21875 C 152.15625 86.21875 123.390625 114.984375 123.390625 150.34375 C 123.390625 185.703125 152.15625 214.46875 187.515625 214.46875 C 222.875 214.46875 251.640625 185.703125 251.640625 150.34375 C 251.640625 114.984375 222.875 86.21875 187.515625 86.21875 Z M 187.515625 210.460938 C 154.367188 210.460938 127.398438 183.492188 127.398438 150.34375 C 127.398438 117.195312 154.367188 90.226562 187.515625 90.226562 C 220.664062 90.226562 247.632812 117.195312 247.632812 150.34375 C 247.632812 183.492188 220.664062 210.460938 187.515625 210.460938 Z M 187.515625 210.460938 " fill-opacity="1" fill-rule="nonzero"/></g><path fill="#ffffff" d="M 187.515625 201.441406 C 159.339844 201.441406 136.417969 178.519531 136.417969 150.34375 C 136.417969 149.234375 135.519531 148.339844 134.414062 148.339844 C 133.304688 148.339844 132.410156 149.234375 132.410156 150.34375 C 132.410156 180.726562 157.132812 205.449219 187.515625 205.449219 C 188.625 205.449219 189.519531 204.554688 189.519531 203.445312 C 189.519531 202.339844 188.625 201.441406 187.515625 201.441406 Z M 187.515625 201.441406 " fill-opacity="1" fill-rule="nonzero"/><path fill="#ffffff" d="M 187.515625 95.234375 C 186.410156 95.234375 185.511719 96.132812 185.511719 97.238281 C 185.511719 98.347656 186.410156 99.242188 187.515625 99.242188 C 215.695312 99.242188 238.617188 122.164062 238.617188 150.34375 C 238.617188 151.449219 239.511719 152.347656 240.621094 152.347656 C 241.726562 152.347656 242.625 151.449219 242.625 150.34375 C 242.625 119.957031 217.902344 95.234375 187.515625 95.234375 Z M 187.515625 95.234375 " fill-opacity="1" fill-rule="nonzero"/><path fill="#ffffff" d="M 192.691406 104.570312 C 192.640625 104.558594 192.585938 104.566406 192.535156 104.554688 C 190.859375 104.371094 189.171875 104.253906 187.464844 104.253906 C 179.425781 104.253906 171.472656 106.386719 164.472656 110.429688 C 142.46875 123.140625 134.902344 151.382812 147.601562 173.386719 C 154.949219 186.109375 167.996094 194.5 182.441406 196.125 C 182.535156 196.140625 182.632812 196.164062 182.734375 196.164062 C 182.746094 196.164062 182.757812 196.160156 182.769531 196.160156 C 184.359375 196.328125 185.957031 196.4375 187.574219 196.4375 C 195.613281 196.4375 203.5625 194.300781 210.5625 190.261719 C 232.566406 177.546875 240.132812 149.304688 227.433594 127.300781 C 220.09375 114.605469 207.097656 106.222656 192.691406 104.570312 Z M 223.957031 129.304688 C 224.5625 130.347656 225.085938 131.421875 225.585938 132.496094 L 217.53125 146.445312 L 196 109.144531 C 207.632812 111.5625 217.90625 118.828125 223.957031 129.304688 Z M 173.628906 174.390625 L 159.746094 150.34375 L 173.628906 126.292969 L 201.273438 126.296875 L 215.21875 150.457031 L 201.398438 174.390625 Z M 166.476562 113.898438 C 172.867188 110.210938 180.128906 108.261719 187.464844 108.261719 C 188.636719 108.261719 189.800781 108.328125 190.957031 108.421875 L 198.960938 122.289062 L 156.191406 122.285156 C 159.085938 119.046875 162.511719 116.191406 166.476562 113.898438 Z M 153.050781 126.292969 L 169.003906 126.292969 L 147.539062 163.46875 C 143.375 150.785156 145.613281 136.996094 153.050781 126.292969 Z M 151.074219 171.382812 C 150.46875 170.335938 149.945312 169.265625 149.441406 168.195312 L 157.433594 154.351562 L 178.882812 191.507812 C 167.316406 189.054688 157.097656 181.8125 151.074219 171.382812 Z M 208.554688 186.789062 C 202.164062 190.480469 194.90625 192.425781 187.570312 192.425781 C 186.351562 192.425781 185.144531 192.355469 183.941406 192.25 L 175.945312 178.398438 L 218.847656 178.398438 C 215.949219 181.640625 212.519531 184.5 208.554688 186.789062 Z M 221.984375 174.390625 L 206.027344 174.390625 L 227.488281 137.214844 C 231.65625 149.898438 229.417969 163.6875 221.984375 174.390625 Z M 221.984375 174.390625 " fill-opacity="1" fill-rule="nonzero"/><g fill="#ffffff" fill-opacity="1"><g transform="translate(152.759515, 256.608749)"><g><path d="M 21.976562 -0.421875 L 11.339844 -27.785156 C 11.234375 -28.066406 10.742188 -28.066406 10.636719 -27.785156 L 0.0351562 -0.421875 C -0.0703125 -0.210938 0.0703125 0 0.386719 0 L 5.179688 0 C 5.320312 0 5.496094 -0.0703125 5.527344 -0.210938 L 10.988281 -15.816406 L 16.519531 -0.210938 C 16.550781 -0.0703125 16.726562 0 16.832031 0 L 21.660156 0 C 21.90625 0 22.082031 -0.210938 21.976562 -0.421875 Z M 21.976562 -0.421875 "/></g></g></g><g fill="#ffffff" fill-opacity="1"><g transform="translate(178.654269, 256.608749)"><g><path d="M 5.773438 -17.847656 L 5.773438 -0.316406 C 5.773438 -0.175781 5.914062 0 6.160156 0 L 10.671875 0 C 10.917969 0 11.09375 -0.175781 11.09375 -0.316406 L 11.09375 -17.847656 Z M 0.386719 -23.203125 L 16.449219 -23.203125 C 16.691406 -23.203125 16.832031 -23.339844 16.832031 -23.515625 L 16.832031 -27.679688 C 16.832031 -27.820312 16.691406 -27.996094 16.449219 -27.996094 L 0.386719 -27.996094 C 0.175781 -27.996094 0 -27.820312 0 -27.679688 L 0 -23.515625 C 0 -23.339844 0.175781 -23.203125 0.386719 -23.203125 Z M 0.386719 -23.203125 "/></g></g></g><g fill="#ffffff" fill-opacity="1"><g transform="translate(199.125244, 256.608749)"><g><path d="M 21.976562 -0.421875 L 11.339844 -27.785156 C 11.234375 -28.066406 10.742188 -28.066406 10.636719 -27.785156 L 0.0351562 -0.421875 C -0.0703125 -0.210938 0.0703125 0 0.386719 0 L 5.179688 0 C 5.320312 0 5.496094 -0.0703125 5.527344 -0.210938 L 10.988281 -15.816406 L 16.519531 -0.210938 C 16.550781 -0.0703125 16.726562 0 16.832031 0 L 21.660156 0 C 21.90625 0 22.082031 -0.210938 21.976562 -0.421875 Z M 21.976562 -0.421875 "/></g></g></g><g fill="#ffffff" fill-opacity="1"><g transform="translate(102.030723, 279.608799)"><g><path d="M 11.015625 -10.125 C 11.015625 -8.675781 10.519531 -7.5625 9.53125 -6.78125 C 8.550781 -6 7.140625 -5.609375 5.296875 -5.609375 L 3.625 -5.609375 L 3.625 0 L 1.96875 0 L 1.96875 -14.28125 L 5.671875 -14.28125 C 9.234375 -14.28125 11.015625 -12.894531 11.015625 -10.125 Z M 3.625 -7.046875 L 5.125 -7.046875 C 6.59375 -7.046875 7.65625 -7.28125 8.3125 -7.75 C 8.96875 -8.226562 9.296875 -8.992188 9.296875 -10.046875 C 9.296875 -10.984375 8.984375 -11.679688 8.359375 -12.140625 C 7.742188 -12.609375 6.785156 -12.84375 5.484375 -12.84375 L 3.625 -12.84375 Z M 3.625 -7.046875 "/></g></g></g><g fill="#ffffff" fill-opacity="1"><g transform="translate(116.507037, 279.608799)"><g><path d="M 12.796875 0 L 11.140625 0 L 11.140625 -6.71875 L 3.625 -6.71875 L 3.625 0 L 1.96875 0 L 1.96875 -14.28125 L 3.625 -14.28125 L 3.625 -8.203125 L 11.140625 -8.203125 L 11.140625 -14.28125 L 12.796875 -14.28125 Z M 12.796875 0 "/></g></g></g><g fill="#ffffff" fill-opacity="1"><g transform="translate(133.697135, 279.608799)"><g><path d="M 14.359375 -7.15625 C 14.359375 -4.875 13.78125 -3.078125 12.625 -1.765625 C 11.46875 -0.453125 9.859375 0.203125 7.796875 0.203125 C 5.703125 0.203125 4.082031 -0.4375 2.9375 -1.71875 C 1.789062 -3.007812 1.21875 -4.828125 1.21875 -7.171875 C 1.21875 -9.503906 1.789062 -11.304688 2.9375 -12.578125 C 4.082031 -13.859375 5.710938 -14.5 7.828125 -14.5 C 9.878906 -14.5 11.476562 -13.847656 12.625 -12.546875 C 13.78125 -11.242188 14.359375 -9.445312 14.359375 -7.15625 Z M 2.984375 -7.15625 C 2.984375 -5.226562 3.394531 -3.765625 4.21875 -2.765625 C 5.039062 -1.765625 6.234375 -1.265625 7.796875 -1.265625 C 9.378906 -1.265625 10.570312 -1.757812 11.375 -2.75 C 12.1875 -3.75 12.59375 -5.21875 12.59375 -7.15625 C 12.59375 -9.082031 12.191406 -10.539062 11.390625 -11.53125 C 10.585938 -12.519531 9.398438 -13.015625 7.828125 -13.015625 C 6.242188 -13.015625 5.039062 -12.515625 4.21875 -11.515625 C 3.394531 -10.515625 2.984375 -9.0625 2.984375 -7.15625 Z M 2.984375 -7.15625 "/></g></g></g><g fill="#ffffff" fill-opacity="1"><g transform="translate(151.707222, 279.608799)"><g><path d="M 6.359375 0 L 4.703125 0 L 4.703125 -12.796875 L 0.171875 -12.796875 L 0.171875 -14.28125 L 10.875 -14.28125 L 10.875 -12.796875 L 6.359375 -12.796875 Z M 6.359375 0 "/></g></g></g><g fill="#ffffff" fill-opacity="1"><g transform="translate(165.207358, 279.608799)"><g><path d="M 14.359375 -7.15625 C 14.359375 -4.875 13.78125 -3.078125 12.625 -1.765625 C 11.46875 -0.453125 9.859375 0.203125 7.796875 0.203125 C 5.703125 0.203125 4.082031 -0.4375 2.9375 -1.71875 C 1.789062 -3.007812 1.21875 -4.828125 1.21875 -7.171875 C 1.21875 -9.503906 1.789062 -11.304688 2.9375 -12.578125 C 4.082031 -13.859375 5.710938 -14.5 7.828125 -14.5 C 9.878906 -14.5 11.476562 -13.847656 12.625 -12.546875 C 13.78125 -11.242188 14.359375 -9.445312 14.359375 -7.15625 Z M 2.984375 -7.15625 C 2.984375 -5.226562 3.394531 -3.765625 4.21875 -2.765625 C 5.039062 -1.765625 6.234375 -1.265625 7.796875 -1.265625 C 9.378906 -1.265625 10.570312 -1.757812 11.375 -2.75 C 12.1875 -3.75 12.59375 -5.21875 12.59375 -7.15625 C 12.59375 -9.082031 12.191406 -10.539062 11.390625 -11.53125 C 10.585938 -12.519531 9.398438 -13.015625 7.828125 -13.015625 C 6.242188 -13.015625 5.039062 -12.515625 4.21875 -11.515625 C 3.394531 -10.515625 2.984375 -9.0625 2.984375 -7.15625 Z M 2.984375 -7.15625 "/></g></g></g><g fill="#ffffff" fill-opacity="1"><g transform="translate(183.217451, 279.608799)"><g><path d="M 8.25 -7.484375 L 13.09375 -7.484375 L 13.09375 -0.53125 C 12.34375 -0.289062 11.578125 -0.109375 10.796875 0.015625 C 10.015625 0.140625 9.109375 0.203125 8.078125 0.203125 C 5.910156 0.203125 4.222656 -0.4375 3.015625 -1.71875 C 1.816406 -3.007812 1.21875 -4.816406 1.21875 -7.140625 C 1.21875 -8.617188 1.515625 -9.914062 2.109375 -11.03125 C 2.710938 -12.15625 3.570312 -13.007812 4.6875 -13.59375 C 5.8125 -14.1875 7.125 -14.484375 8.625 -14.484375 C 10.144531 -14.484375 11.5625 -14.203125 12.875 -13.640625 L 12.234375 -12.171875 C 10.941406 -12.722656 9.703125 -13 8.515625 -13 C 6.773438 -13 5.414062 -12.476562 4.4375 -11.4375 C 3.46875 -10.40625 2.984375 -8.972656 2.984375 -7.140625 C 2.984375 -5.210938 3.453125 -3.75 4.390625 -2.75 C 5.328125 -1.757812 6.707031 -1.265625 8.53125 -1.265625 C 9.519531 -1.265625 10.488281 -1.378906 11.4375 -1.609375 L 11.4375 -6 L 8.25 -6 Z M 8.25 -7.484375 "/></g></g></g><g fill="#ffffff" fill-opacity="1"><g transform="translate(200.212315, 279.608799)"><g><path d="M 3.625 -5.9375 L 3.625 0 L 1.96875 0 L 1.96875 -14.28125 L 5.875 -14.28125 C 7.625 -14.28125 8.914062 -13.941406 9.75 -13.265625 C 10.59375 -12.597656 11.015625 -11.59375 11.015625 -10.25 C 11.015625 -8.351562 10.054688 -7.078125 8.140625 -6.421875 L 12.015625 0 L 10.0625 0 L 6.609375 -5.9375 Z M 3.625 -7.359375 L 5.90625 -7.359375 C 7.070312 -7.359375 7.925781 -7.59375 8.46875 -8.0625 C 9.019531 -8.53125 9.296875 -9.226562 9.296875 -10.15625 C 9.296875 -11.101562 9.015625 -11.785156 8.453125 -12.203125 C 7.898438 -12.617188 7.007812 -12.828125 5.78125 -12.828125 L 3.625 -12.828125 Z M 3.625 -7.359375 "/></g></g></g><g fill="#ffffff" fill-opacity="1"><g transform="translate(215.010772, 279.608799)"><g><path d="M 10.9375 0 L 9.15625 -4.546875 L 3.4375 -4.546875 L 1.6875 0 L 0 0 L 5.640625 -14.34375 L 7.046875 -14.34375 L 12.65625 0 Z M 8.640625 -6.03125 L 6.984375 -10.453125 C 6.765625 -11.015625 6.539062 -11.703125 6.3125 -12.515625 C 6.175781 -11.890625 5.972656 -11.203125 5.703125 -10.453125 L 4.03125 -6.03125 Z M 8.640625 -6.03125 "/></g></g></g><g fill="#ffffff" fill-opacity="1"><g transform="translate(230.102084, 279.608799)"><g><path d="M 11.015625 -10.125 C 11.015625 -8.675781 10.519531 -7.5625 9.53125 -6.78125 C 8.550781 -6 7.140625 -5.609375 5.296875 -5.609375 L 3.625 -5.609375 L 3.625 0 L 1.96875 0 L 1.96875 -14.28125 L 5.671875 -14.28125 C 9.234375 -14.28125 11.015625 -12.894531 11.015625 -10.125 Z M 3.625 -7.046875 L 5.125 -7.046875 C 6.59375 -7.046875 7.65625 -7.28125 8.3125 -7.75 C 8.96875 -8.226562 9.296875 -8.992188 9.296875 -10.046875 C 9.296875 -10.984375 8.984375 -11.679688 8.359375 -12.140625 C 7.742188 -12.609375 6.785156 -12.84375 5.484375 -12.84375 L 3.625 -12.84375 Z M 3.625 -7.046875 "/></g></g></g><g fill="#ffffff" fill-opacity="1"><g transform="translate(244.578401, 279.608799)"><g><path d="M 12.796875 0 L 11.140625 0 L 11.140625 -6.71875 L 3.625 -6.71875 L 3.625 0 L 1.96875 0 L 1.96875 -14.28125 L 3.625 -14.28125 L 3.625 -8.203125 L 11.140625 -8.203125 L 11.140625 -14.28125 L 12.796875 -14.28125 Z M 12.796875 0 "/></g></g></g><g fill="#ffffff" fill-opacity="1"><g transform="translate(261.768501, 279.608799)"><g><path d="M 5.59375 -7.140625 L 9.40625 -14.28125 L 11.203125 -14.28125 L 6.4375 -5.53125 L 6.4375 0 L 4.75 0 L 4.75 -5.453125 L 0 -14.28125 L 1.8125 -14.28125 Z M 5.59375 -7.140625 "/></g></g></g></svg>