<svg xmlns="http://www.w3.org/2000/svg" xmlns:xlink="http://www.w3.org/1999/xlink" width="500" zoomAndPan="magnify" viewBox="0 0 375 374.999991" height="500" preserveAspectRatio="xMidYMid meet" version="1.0"><defs><clipPath id="01599cbc4f"><path d="M 55.546875 0 L 319.546875 0 L 319.546875 375 L 55.546875 375 Z M 55.546875 0 " clip-rule="nonzero"/></clipPath></defs><g clip-path="url(#01599cbc4f)"><path fill="#000000" d="M 312.589844 0 L 62.503906 0 C 58.667969 0 55.554688 3.109375 55.554688 6.945312 L 55.554688 368.054688 C 55.554688 371.894531 58.667969 375 62.503906 375 L 312.589844 375 C 316.433594 375 319.539062 371.894531 319.539062 368.054688 L 319.539062 6.945312 C 319.539062 3.109375 316.433594 0 312.589844 0 Z M 305.644531 361.109375 L 69.449219 361.109375 L 69.449219 13.890625 L 305.644531 13.890625 Z M 305.644531 361.109375 " fill-opacity="1" fill-rule="nonzero"/></g><path fill="#000000" d="M 90.289062 347.222656 L 284.804688 347.222656 C 288.644531 347.222656 291.75 344.117188 291.75 340.277344 L 291.75 34.722656 C 291.75 30.890625 288.644531 27.777344 284.804688 27.777344 L 90.289062 27.777344 C 86.457031 27.777344 83.34375 30.890625 83.34375 34.722656 L 83.34375 340.277344 C 83.34375 344.117188 86.457031 347.222656 90.289062 347.222656 Z M 277.855469 333.332031 L 97.238281 333.332031 L 97.238281 298.609375 C 97.238281 248.832031 137.75 208.332031 187.546875 208.332031 C 237.34375 208.332031 277.855469 248.832031 277.855469 298.609375 Z M 97.238281 41.667969 L 277.855469 41.667969 L 277.855469 246.859375 C 265.039062 224.609375 244.304688 207.5 219.453125 199.484375 C 237.753906 188.570312 250.070312 168.640625 250.070312 145.832031 C 250.070312 111.375 222.023438 83.332031 187.546875 83.332031 C 153.078125 83.332031 125.023438 111.375 125.023438 145.832031 C 125.023438 168.640625 137.339844 188.570312 155.640625 199.484375 C 130.789062 207.5 110.046875 224.609375 97.238281 246.867188 Z M 187.546875 194.445312 C 160.730469 194.445312 138.917969 172.640625 138.917969 145.832031 C 138.917969 119.027344 160.730469 97.222656 187.546875 97.222656 C 214.355469 97.222656 236.175781 119.027344 236.175781 145.832031 C 236.175781 172.640625 214.355469 194.445312 187.546875 194.445312 Z M 187.546875 194.445312 " fill-opacity="1" fill-rule="nonzero"/></svg>