<svg xmlns="http://www.w3.org/2000/svg" xmlns:xlink="http://www.w3.org/1999/xlink" width="500" zoomAndPan="magnify" viewBox="0 0 375 374.999991" height="500" preserveAspectRatio="xMidYMid meet" version="1.0"><defs><clipPath id="0b03c83337"><path d="M 67 20 L 298 20 L 298 251.25 L 67 251.25 Z M 67 20 " clip-rule="nonzero"/></clipPath></defs><path fill="#000000" d="M 63.621094 70.597656 L 57.457031 4.363281 C 57.414062 3.875 57.28125 3.414062 57.0625 2.976562 C 56.839844 2.539062 56.546875 2.15625 56.183594 1.832031 C 55.816406 1.503906 55.40625 1.257812 54.945312 1.089844 C 54.484375 0.921875 54.007812 0.84375 53.519531 0.855469 C 53.03125 0.867188 52.558594 0.96875 52.109375 1.160156 C 51.65625 1.355469 51.257812 1.621094 50.910156 1.96875 C 50.5625 2.3125 50.289062 2.707031 50.09375 3.15625 C 49.894531 3.605469 49.789062 4.074219 49.769531 4.5625 L 47.746094 53.285156 C 47.75 53.757812 47.667969 54.210938 47.492188 54.652344 C 47.316406 55.089844 47.0625 55.476562 46.734375 55.8125 C 46.40625 56.152344 46.023438 56.414062 45.589844 56.597656 C 45.15625 56.785156 44.703125 56.878906 44.230469 56.886719 C 43.761719 56.890625 43.304688 56.808594 42.867188 56.632812 C 42.429688 56.457031 42.042969 56.203125 41.703125 55.875 C 41.367188 55.546875 41.105469 55.164062 40.917969 54.730469 C 40.734375 54.296875 40.636719 53.84375 40.632812 53.371094 L 37.511719 5.460938 C 37.492188 5.152344 37.441406 4.847656 37.367188 4.550781 C 37.289062 4.25 37.183594 3.960938 37.050781 3.679688 C 36.921875 3.402344 36.765625 3.136719 36.582031 2.886719 C 36.398438 2.636719 36.195312 2.40625 35.972656 2.195312 C 35.746094 1.984375 35.503906 1.792969 35.242188 1.628906 C 34.980469 1.460938 34.707031 1.324219 34.417969 1.210938 C 34.132812 1.097656 33.835938 1.011719 33.53125 0.953125 C 33.226562 0.894531 32.921875 0.863281 32.613281 0.863281 C 32.304688 0.863281 31.996094 0.894531 31.695312 0.953125 C 31.390625 1.011719 31.09375 1.097656 30.808594 1.210938 C 30.519531 1.324219 30.246094 1.460938 29.984375 1.628906 C 29.722656 1.792969 29.480469 1.984375 29.253906 2.195312 C 29.027344 2.40625 28.824219 2.636719 28.644531 2.886719 C 28.460938 3.136719 28.304688 3.402344 28.171875 3.679688 C 28.042969 3.960938 27.9375 4.25 27.859375 4.550781 C 27.78125 4.847656 27.734375 5.152344 27.714844 5.460938 L 24.589844 53.371094 C 24.582031 53.84375 24.484375 54.296875 24.300781 54.730469 C 24.113281 55.164062 23.851562 55.542969 23.515625 55.871094 C 23.175781 56.203125 22.789062 56.453125 22.351562 56.628906 C 21.914062 56.804688 21.460938 56.890625 20.988281 56.882812 C 20.515625 56.878906 20.0625 56.78125 19.632812 56.597656 C 19.199219 56.410156 18.816406 56.148438 18.488281 55.8125 C 18.15625 55.476562 17.90625 55.085938 17.730469 54.648438 C 17.554688 54.210938 17.46875 53.757812 17.472656 53.285156 L 15.449219 4.5625 C 15.433594 4.074219 15.324219 3.605469 15.128906 3.15625 C 14.929688 2.707031 14.65625 2.3125 14.308594 1.96875 C 13.960938 1.621094 13.5625 1.355469 13.109375 1.160156 C 12.660156 0.96875 12.191406 0.867188 11.699219 0.855469 C 11.210938 0.84375 10.734375 0.921875 10.277344 1.089844 C 9.816406 1.257812 9.402344 1.503906 9.035156 1.832031 C 8.671875 2.15625 8.378906 2.539062 8.160156 2.976562 C 7.9375 3.414062 7.804688 3.875 7.761719 4.363281 L 1.597656 70.597656 C 0.25 85.050781 7.941406 99.484375 21.445312 104.652344 C 21.714844 104.757812 22.03125 104.800781 22.3125 104.898438 L 18.894531 233.710938 C 18.863281 234.632812 18.921875 235.546875 19.074219 236.460938 C 19.222656 237.371094 19.464844 238.257812 19.792969 239.117188 C 20.121094 239.980469 20.535156 240.800781 21.027344 241.578125 C 21.523438 242.359375 22.089844 243.082031 22.730469 243.746094 C 23.371094 244.410156 24.070312 245.007812 24.828125 245.53125 C 25.589844 246.054688 26.394531 246.496094 27.242188 246.859375 C 28.089844 247.222656 28.96875 247.496094 29.871094 247.683594 C 30.773438 247.867188 31.6875 247.960938 32.613281 247.964844 C 33.535156 247.960938 34.449219 247.867188 35.351562 247.683594 C 36.253906 247.496094 37.132812 247.222656 37.980469 246.859375 C 38.828125 246.496094 39.632812 246.054688 40.394531 245.53125 C 41.152344 245.007812 41.851562 244.410156 42.492188 243.746094 C 43.132812 243.082031 43.699219 242.359375 44.195312 241.578125 C 44.6875 240.800781 45.101562 239.980469 45.429688 239.117188 C 45.757812 238.257812 46 237.371094 46.148438 236.460938 C 46.300781 235.546875 46.359375 234.632812 46.328125 233.710938 L 42.90625 104.898438 C 43.1875 104.800781 43.503906 104.757812 43.773438 104.652344 C 57.277344 99.484375 64.96875 85.050781 63.621094 70.597656 Z M 63.621094 70.597656 " fill-opacity="1" fill-rule="nonzero"/><path fill="#000000" d="M 349.847656 8.902344 C 349.609375 8.234375 349.316406 7.589844 348.96875 6.976562 C 348.617188 6.359375 348.21875 5.777344 347.765625 5.234375 C 347.3125 4.6875 346.820312 4.183594 346.277344 3.726562 C 345.738281 3.269531 345.164062 2.859375 344.550781 2.503906 C 343.941406 2.144531 343.300781 1.84375 342.636719 1.601562 C 341.972656 1.355469 341.292969 1.167969 340.59375 1.042969 C 339.898438 0.917969 339.195312 0.855469 338.488281 0.851562 C 337.777344 0.851562 337.074219 0.910156 336.378906 1.035156 C 335.679688 1.15625 334.996094 1.335938 334.332031 1.578125 C 333.667969 1.820312 333.027344 2.117188 332.414062 2.472656 C 331.800781 2.828125 331.222656 3.230469 330.679688 3.6875 C 330.136719 4.144531 329.640625 4.644531 329.183594 5.1875 C 328.730469 5.730469 328.328125 6.308594 327.976562 6.921875 C 327.621094 7.535156 327.328125 8.175781 327.085938 8.84375 C 326.847656 9.511719 326.667969 10.191406 326.546875 10.890625 C 326.425781 11.589844 326.367188 12.292969 326.371094 13 L 326.371094 234.363281 C 326.367188 235.28125 326.457031 236.1875 326.636719 237.089844 C 326.816406 237.988281 327.085938 238.859375 327.441406 239.707031 C 327.800781 240.550781 328.238281 241.351562 328.761719 242.109375 C 329.28125 242.863281 329.871094 243.558594 330.535156 244.195312 C 331.195312 244.832031 331.914062 245.394531 332.691406 245.882812 C 333.46875 246.375 334.285156 246.78125 335.144531 247.105469 C 336.003906 247.425781 336.886719 247.660156 337.792969 247.804688 C 338.699219 247.949219 339.613281 248 340.527344 247.957031 C 341.445312 247.917969 342.347656 247.785156 343.238281 247.558594 C 344.128906 247.335938 344.988281 247.023438 345.8125 246.621094 C 346.640625 246.222656 347.417969 245.746094 348.148438 245.1875 C 348.875 244.628906 349.542969 244.003906 350.144531 243.3125 C 350.746094 242.617188 351.273438 241.871094 351.722656 241.070312 C 352.171875 240.273438 352.539062 239.433594 352.816406 238.5625 C 353.097656 237.6875 353.289062 236.792969 353.386719 235.882812 C 353.484375 234.96875 353.492188 234.054688 353.402344 233.140625 L 347.570312 139.914062 C 352.738281 138.523438 357.449219 135.433594 359.726562 129.101562 C 374.789062 87.203125 357.296875 29.820312 349.847656 8.902344 Z M 349.847656 8.902344 " fill-opacity="1" fill-rule="nonzero"/><g clip-path="url(#0b03c83337)"><path fill="#000000" d="M 182.898438 20.300781 C 119.410156 20.300781 67.945312 72 67.945312 135.773438 C 67.945312 199.550781 119.410156 251.25 182.898438 251.25 C 246.386719 251.25 297.851562 199.550781 297.851562 135.773438 C 297.851562 72 246.386719 20.300781 182.898438 20.300781 Z M 257.40625 162.445312 C 256.734375 164.359375 255.992188 166.25 255.175781 168.109375 C 254.359375 169.964844 253.472656 171.792969 252.511719 173.582031 C 251.554688 175.371094 250.53125 177.125 249.4375 178.835938 C 248.34375 180.546875 247.1875 182.210938 245.964844 183.835938 C 244.746094 185.457031 243.464844 187.03125 242.121094 188.554688 C 240.777344 190.074219 239.378906 191.546875 237.921875 192.960938 C 236.464844 194.375 234.957031 195.734375 233.398438 197.03125 C 231.835938 198.332031 230.226562 199.566406 228.574219 200.742188 C 226.917969 201.917969 225.21875 203.027344 223.476562 204.070312 C 221.734375 205.113281 219.953125 206.089844 218.136719 206.996094 C 216.320312 207.902344 214.472656 208.734375 212.589844 209.5 C 210.707031 210.261719 208.800781 210.953125 206.867188 211.570312 C 204.929688 212.1875 202.976562 212.726562 201 213.191406 C 199.023438 213.660156 197.03125 214.046875 195.023438 214.359375 C 193.019531 214.671875 191.003906 214.90625 188.980469 215.0625 C 186.953125 215.21875 184.925781 215.296875 182.894531 215.296875 C 180.867188 215.296875 178.839844 215.21875 176.8125 215.0625 C 174.789062 214.90625 172.773438 214.671875 170.769531 214.359375 C 168.761719 214.046875 166.769531 213.660156 164.792969 213.191406 C 162.816406 212.726562 160.863281 212.1875 158.925781 211.570312 C 156.992188 210.953125 155.085938 210.261719 153.203125 209.5 C 151.320312 208.734375 149.472656 207.902344 147.65625 206.996094 C 145.839844 206.089844 144.058594 205.113281 142.316406 204.070312 C 140.574219 203.027344 138.875 201.917969 137.21875 200.742188 C 135.566406 199.566406 133.957031 198.332031 132.394531 197.03125 C 130.835938 195.734375 129.328125 194.375 127.871094 192.960938 C 126.414062 191.546875 125.015625 190.074219 123.671875 188.550781 C 122.328125 187.03125 121.046875 185.457031 119.828125 183.835938 C 118.605469 182.210938 117.449219 180.546875 116.355469 178.835938 C 115.261719 177.125 114.238281 175.371094 113.28125 173.582031 C 112.320312 171.792969 111.433594 169.964844 110.617188 168.109375 C 109.800781 166.25 109.058594 164.359375 108.386719 162.445312 C 108.21875 161.992188 108.101562 161.527344 108.027344 161.050781 C 107.953125 160.578125 107.925781 160.097656 107.945312 159.617188 C 107.964844 159.136719 108.035156 158.660156 108.148438 158.191406 C 108.261719 157.726562 108.421875 157.273438 108.625 156.835938 C 108.828125 156.402344 109.074219 155.988281 109.359375 155.601562 C 109.644531 155.214844 109.964844 154.855469 110.324219 154.53125 C 110.679688 154.207031 111.0625 153.921875 111.476562 153.671875 C 111.890625 153.425781 112.320312 153.21875 112.773438 153.058594 C 113.230469 152.894531 113.695312 152.777344 114.171875 152.707031 C 114.648438 152.636719 115.125 152.613281 115.605469 152.640625 C 116.085938 152.664062 116.5625 152.734375 117.027344 152.851562 C 117.496094 152.96875 117.945312 153.132812 118.378906 153.339844 C 118.816406 153.546875 119.226562 153.796875 119.609375 154.085938 C 119.996094 154.375 120.351562 154.695312 120.671875 155.054688 C 120.992188 155.414062 121.277344 155.800781 121.523438 156.214844 C 121.765625 156.628906 121.96875 157.066406 122.128906 157.519531 C 122.675781 159.082031 123.28125 160.621094 123.949219 162.136719 C 124.613281 163.65625 125.335938 165.144531 126.117188 166.605469 C 126.898438 168.066406 127.734375 169.492188 128.625 170.890625 C 129.515625 172.285156 130.460938 173.644531 131.457031 174.96875 C 132.453125 176.292969 133.496094 177.574219 134.589844 178.816406 C 135.6875 180.058594 136.828125 181.257812 138.015625 182.414062 C 139.203125 183.566406 140.433594 184.675781 141.707031 185.734375 C 142.976562 186.792969 144.289062 187.800781 145.640625 188.761719 C 146.992188 189.71875 148.378906 190.625 149.796875 191.476562 C 151.21875 192.328125 152.667969 193.121094 154.152344 193.863281 C 155.632812 194.601562 157.140625 195.28125 158.675781 195.90625 C 160.210938 196.527344 161.765625 197.089844 163.34375 197.59375 C 164.921875 198.097656 166.515625 198.539062 168.128906 198.917969 C 169.742188 199.296875 171.367188 199.617188 173.003906 199.871094 C 174.640625 200.125 176.28125 200.316406 177.933594 200.445312 C 179.585938 200.570312 181.238281 200.636719 182.894531 200.636719 C 184.550781 200.636719 186.203125 200.570312 187.855469 200.445312 C 189.507812 200.316406 191.152344 200.125 192.789062 199.871094 C 194.425781 199.617188 196.046875 199.300781 197.660156 198.917969 C 199.273438 198.539062 200.867188 198.097656 202.445312 197.59375 C 204.023438 197.09375 205.578125 196.53125 207.113281 195.90625 C 208.648438 195.285156 210.15625 194.601562 211.640625 193.863281 C 213.121094 193.125 214.570312 192.328125 215.992188 191.476562 C 217.414062 190.625 218.800781 189.722656 220.148438 188.761719 C 221.5 187.804688 222.8125 186.796875 224.085938 185.738281 C 225.359375 184.675781 226.589844 183.570312 227.777344 182.414062 C 228.964844 181.261719 230.105469 180.0625 231.199219 178.820312 C 232.292969 177.578125 233.339844 176.292969 234.335938 174.972656 C 235.332031 173.648438 236.277344 172.289062 237.167969 170.894531 C 238.058594 169.496094 238.894531 168.070312 239.675781 166.609375 C 240.457031 165.148438 241.179688 163.660156 241.84375 162.144531 C 242.511719 160.625 243.117188 159.085938 243.664062 157.523438 C 243.824219 157.070312 244.027344 156.632812 244.269531 156.21875 C 244.515625 155.804688 244.796875 155.417969 245.121094 155.058594 C 245.441406 154.699219 245.792969 154.375 246.179688 154.089844 C 246.566406 153.800781 246.976562 153.550781 247.410156 153.34375 C 247.84375 153.136719 248.296875 152.972656 248.761719 152.855469 C 249.230469 152.738281 249.703125 152.664062 250.183594 152.640625 C 250.664062 152.617188 251.144531 152.640625 251.621094 152.710938 C 252.097656 152.78125 252.5625 152.894531 253.015625 153.058594 C 253.46875 153.222656 253.902344 153.425781 254.316406 153.675781 C 254.726562 153.921875 255.113281 154.207031 255.46875 154.53125 C 255.824219 154.855469 256.144531 155.214844 256.429688 155.601562 C 256.71875 155.988281 256.960938 156.402344 257.167969 156.835938 C 257.371094 157.273438 257.53125 157.726562 257.644531 158.191406 C 257.757812 158.660156 257.828125 159.136719 257.847656 159.617188 C 257.867188 160.097656 257.839844 160.578125 257.765625 161.050781 C 257.691406 161.527344 257.574219 161.992188 257.40625 162.445312 Z M 252.988281 118.476562 C 252.195312 118.761719 251.378906 118.902344 250.535156 118.902344 C 249.78125 118.902344 249.046875 118.785156 248.328125 118.558594 C 247.609375 118.328125 246.941406 117.996094 246.328125 117.558594 C 245.710938 117.125 245.175781 116.605469 244.722656 116.003906 C 244.269531 115.402344 243.914062 114.746094 243.664062 114.035156 C 243.117188 112.46875 242.511719 110.929688 241.847656 109.414062 C 241.179688 107.898438 240.457031 106.40625 239.675781 104.945312 C 238.894531 103.484375 238.058594 102.058594 237.167969 100.660156 C 236.277344 99.265625 235.335938 97.90625 234.339844 96.582031 C 233.34375 95.257812 232.296875 93.972656 231.203125 92.730469 C 230.109375 91.488281 228.96875 90.289062 227.78125 89.136719 C 226.59375 87.980469 225.363281 86.871094 224.089844 85.8125 C 222.816406 84.753906 221.503906 83.742188 220.15625 82.785156 C 218.804688 81.828125 217.417969 80.921875 215.996094 80.070312 C 214.578125 79.21875 213.125 78.421875 211.644531 77.683594 C 210.160156 76.941406 208.652344 76.261719 207.117188 75.640625 C 205.582031 75.015625 204.027344 74.453125 202.449219 73.949219 C 200.871094 73.445312 199.277344 73.003906 197.664062 72.625 C 196.050781 72.246094 194.425781 71.925781 192.789062 71.671875 C 191.152344 71.417969 189.507812 71.226562 187.859375 71.101562 C 186.207031 70.972656 184.554688 70.910156 182.894531 70.910156 C 181.238281 70.910156 179.585938 70.972656 177.933594 71.101562 C 176.285156 71.226562 174.640625 71.417969 173.003906 71.671875 C 171.367188 71.925781 169.742188 72.246094 168.128906 72.625 C 166.515625 73.003906 164.921875 73.445312 163.34375 73.949219 C 161.765625 74.453125 160.210938 75.015625 158.675781 75.636719 C 157.140625 76.261719 155.632812 76.941406 154.148438 77.683594 C 152.667969 78.421875 151.214844 79.21875 149.796875 80.070312 C 148.375 80.921875 146.988281 81.828125 145.636719 82.785156 C 144.289062 83.742188 142.976562 84.753906 141.703125 85.8125 C 140.429688 86.871094 139.199219 87.980469 138.011719 89.136719 C 136.824219 90.289062 135.683594 91.488281 134.589844 92.730469 C 133.496094 93.972656 132.449219 95.257812 131.453125 96.582031 C 130.457031 97.90625 129.515625 99.265625 128.625 100.660156 C 127.730469 102.058594 126.898438 103.484375 126.117188 104.945312 C 125.335938 106.40625 124.613281 107.898438 123.945312 109.414062 C 123.28125 110.929688 122.675781 112.46875 122.128906 114.035156 C 121.96875 114.488281 121.765625 114.921875 121.523438 115.335938 C 121.277344 115.753906 120.992188 116.140625 120.671875 116.496094 C 120.351562 116.855469 119.996094 117.179688 119.613281 117.46875 C 119.226562 117.757812 118.816406 118.003906 118.378906 118.210938 C 117.945312 118.421875 117.496094 118.582031 117.027344 118.699219 C 116.5625 118.820312 116.085938 118.890625 115.605469 118.914062 C 115.125 118.9375 114.644531 118.914062 114.167969 118.84375 C 113.695312 118.773438 113.226562 118.660156 112.773438 118.496094 C 112.320312 118.332031 111.886719 118.128906 111.476562 117.878906 C 111.0625 117.632812 110.679688 117.34375 110.324219 117.019531 C 109.964844 116.695312 109.644531 116.339844 109.359375 115.953125 C 109.074219 115.566406 108.828125 115.152344 108.625 114.714844 C 108.421875 114.28125 108.261719 113.828125 108.148438 113.359375 C 108.035156 112.890625 107.964844 112.417969 107.945312 111.9375 C 107.925781 111.453125 107.953125 110.976562 108.027344 110.5 C 108.101562 110.023438 108.21875 109.558594 108.386719 109.109375 C 109.058594 107.191406 109.800781 105.304688 110.617188 103.445312 C 111.433594 101.585938 112.320312 99.761719 113.277344 97.96875 C 114.238281 96.179688 115.261719 94.429688 116.355469 92.714844 C 117.445312 91.003906 118.605469 89.339844 119.824219 87.714844 C 121.046875 86.09375 122.328125 84.519531 123.671875 82.996094 C 125.011719 81.472656 126.414062 80.003906 127.867188 78.589844 C 129.324219 77.175781 130.832031 75.816406 132.394531 74.519531 C 133.953125 73.21875 135.5625 71.980469 137.21875 70.808594 C 138.875 69.632812 140.574219 68.523438 142.316406 67.480469 C 144.058594 66.433594 145.835938 65.460938 147.652344 64.554688 C 149.472656 63.648438 151.320312 62.8125 153.203125 62.046875 C 155.082031 61.285156 156.992188 60.59375 158.925781 59.976562 C 160.859375 59.359375 162.816406 58.820312 164.792969 58.355469 C 166.769531 57.886719 168.761719 57.5 170.765625 57.1875 C 172.773438 56.875 174.789062 56.640625 176.8125 56.484375 C 178.839844 56.328125 180.867188 56.25 182.894531 56.25 C 184.925781 56.25 186.953125 56.328125 188.980469 56.484375 C 191.003906 56.640625 193.019531 56.875 195.027344 57.1875 C 197.03125 57.5 199.023438 57.886719 201 58.355469 C 202.976562 58.820312 204.933594 59.359375 206.867188 59.976562 C 208.800781 60.59375 210.710938 61.285156 212.589844 62.046875 C 214.472656 62.8125 216.320312 63.648438 218.140625 64.554688 C 219.957031 65.460938 221.734375 66.433594 223.476562 67.480469 C 225.21875 68.523438 226.917969 69.632812 228.574219 70.808594 C 230.230469 71.980469 231.839844 73.21875 233.398438 74.519531 C 234.960938 75.816406 236.46875 77.175781 237.925781 78.589844 C 239.378906 80.003906 240.78125 81.472656 242.121094 82.996094 C 243.464844 84.519531 244.746094 86.09375 245.96875 87.714844 C 247.1875 89.339844 248.347656 91.003906 249.4375 92.714844 C 250.53125 94.429688 251.554688 96.179688 252.515625 97.96875 C 253.472656 99.761719 254.359375 101.585938 255.175781 103.445312 C 255.992188 105.304688 256.734375 107.191406 257.40625 109.109375 C 257.566406 109.5625 257.683594 110.023438 257.753906 110.5 C 257.824219 110.976562 257.847656 111.453125 257.824219 111.933594 C 257.800781 112.414062 257.730469 112.886719 257.613281 113.351562 C 257.496094 113.820312 257.335938 114.269531 257.132812 114.703125 C 256.925781 115.140625 256.683594 115.550781 256.394531 115.9375 C 256.109375 116.324219 255.789062 116.675781 255.433594 117 C 255.078125 117.324219 254.695312 117.609375 254.285156 117.859375 C 253.871094 118.105469 253.441406 118.3125 252.988281 118.476562 Z M 252.988281 118.476562 " fill-opacity="1" fill-rule="nonzero"/></g></svg>