<svg xmlns="http://www.w3.org/2000/svg" xmlns:xlink="http://www.w3.org/1999/xlink" width="500" zoomAndPan="magnify" viewBox="0 0 375 374.999991" height="500" preserveAspectRatio="xMidYMid meet" version="1.0"><defs><clipPath id="4b0acdebd2"><path d="M 8.4375 0 L 366.9375 0 L 366.9375 375 L 8.4375 375 Z M 8.4375 0 " clip-rule="nonzero"/></clipPath></defs><g clip-path="url(#4b0acdebd2)"><path fill="#000000" d="M 42.648438 0 C 23.804688 0 8.523438 15.265625 8.523438 34.089844 L 8.523438 153.410156 C 8.523438 172.234375 23.804688 187.5 42.648438 187.5 L 179.023438 187.5 L 179.023438 242.832031 C 177.351562 240.871094 175.613281 238.796875 174.105469 237.089844 C 171.511719 234.148438 169.871094 232.191406 167.476562 230.230469 C 153.703125 217.828125 132.207031 218.984375 119.699219 232.578125 C 107.066406 246.296875 109.492188 266.90625 121.417969 279.867188 C 154.335938 318.703125 173.355469 342.285156 193.167969 356.773438 C 213.039062 371.300781 233.609375 375.34375 264.621094 374.800781 C 265.542969 374.78125 273.683594 374.738281 281.503906 374.699219 C 289.179688 374.660156 296.050781 374.652344 298.597656 374.566406 C 338.339844 374.566406 367.136719 336.710938 367.136719 298.3125 L 367.136719 220.144531 C 367.136719 203.746094 353.648438 190.347656 337.226562 190.347656 C 331.136719 190.347656 325.640625 192.296875 321.027344 195.457031 C 316.070312 185.769531 306.050781 179.027344 294.464844 179.027344 C 287.96875 179.027344 281.976562 181.183594 277.054688 184.738281 C 275.433594 182.140625 273.421875 179.851562 271.105469 177.863281 C 277.511719 171.664062 281.535156 163.023438 281.535156 153.410156 L 281.535156 34.089844 C 281.535156 15.265625 266.253906 0 247.410156 0 Z M 77.394531 42.613281 L 93.738281 42.613281 L 119.96875 144.886719 L 102.371094 144.886719 L 98.320312 127.839844 L 72.660156 127.839844 L 68.777344 144.886719 L 51.179688 144.886719 Z M 127.964844 42.613281 L 136.496094 42.613281 C 158.082031 42.613281 179.15625 46.558594 179.15625 93.75 C 179.15625 140.941406 158.082031 144.886719 136.496094 144.886719 L 127.964844 144.886719 Z M 213.28125 42.613281 C 225.96875 42.613281 234.464844 50.386719 237.476562 54.980469 L 223.195312 64.335938 C 223.144531 64.261719 219.800781 59.660156 213.28125 59.660156 C 209.441406 59.761719 204.75 61.320312 204.75 68.183594 C 204.75 73.175781 212.8125 81.246094 219.296875 87.722656 C 228.929688 97.335938 238.878906 107.265625 238.878906 119.316406 C 238.878906 120.117188 238.699219 120.777344 238.644531 121.53125 C 237.644531 106.019531 224.714844 93.601562 208.933594 93.601562 C 206.566406 93.601562 204.296875 93.957031 202.085938 94.484375 C 194.386719 86.46875 187.6875 78.042969 187.6875 68.183594 C 187.6875 49.421875 202.992188 42.613281 213.28125 42.613281 Z M 145.027344 59.910156 L 145.027344 127.589844 C 155.832031 126.558594 162.09375 121.234375 162.09375 93.75 C 162.09375 66.265625 155.832031 60.941406 145.027344 59.910156 Z M 85.207031 72.675781 L 76.542969 110.796875 L 94.273438 110.796875 Z M 208.933594 110.644531 C 216.449219 110.644531 221.78125 115.980469 221.78125 123.414062 L 221.78125 238.636719 C 221.765625 239.789062 221.980469 240.894531 222.414062 241.960938 C 222.851562 243.027344 223.480469 243.96875 224.296875 244.777344 C 224.492188 244.984375 224.699219 245.175781 224.914062 245.359375 C 224.917969 245.359375 224.925781 245.359375 224.929688 245.359375 C 225.144531 245.539062 225.367188 245.703125 225.597656 245.859375 C 225.601562 245.859375 225.609375 245.859375 225.613281 245.859375 C 225.84375 246.015625 226.082031 246.160156 226.328125 246.292969 C 226.335938 246.292969 226.339844 246.292969 226.347656 246.292969 C 226.597656 246.429688 226.851562 246.550781 227.113281 246.660156 C 227.117188 246.660156 227.125 246.660156 227.128906 246.660156 C 227.386719 246.765625 227.648438 246.859375 227.914062 246.941406 C 227.917969 246.941406 227.925781 246.941406 227.929688 246.941406 C 228.199219 247.023438 228.46875 247.089844 228.746094 247.140625 C 228.75 247.140625 228.757812 247.140625 228.761719 247.140625 C 229.039062 247.1875 229.316406 247.222656 229.597656 247.242188 C 229.601562 247.242188 229.605469 247.242188 229.613281 247.242188 C 229.894531 247.265625 230.179688 247.277344 230.460938 247.277344 C 230.746094 247.273438 231.03125 247.257812 231.3125 247.226562 C 231.59375 247.191406 231.871094 247.140625 232.144531 247.074219 C 232.425781 247.019531 232.703125 246.945312 232.980469 246.859375 C 233.246094 246.773438 233.503906 246.671875 233.761719 246.558594 C 234.023438 246.445312 234.277344 246.316406 234.527344 246.175781 C 234.773438 246.035156 235.015625 245.878906 235.246094 245.710938 C 235.480469 245.550781 235.707031 245.378906 235.929688 245.195312 C 236.136719 245.003906 236.335938 244.804688 236.527344 244.59375 C 236.535156 244.59375 236.539062 244.59375 236.542969 244.59375 C 237.304688 243.789062 237.882812 242.871094 238.28125 241.839844 C 238.683594 240.808594 238.875 239.742188 238.859375 238.636719 L 238.859375 200.316406 C 238.859375 192.886719 244.195312 187.566406 251.707031 187.566406 C 259.222656 187.566406 264.554688 192.886719 264.554688 200.316406 L 264.554688 238.636719 C 264.546875 239.199219 264.59375 239.761719 264.699219 240.316406 C 264.800781 240.871094 264.960938 241.410156 265.171875 241.933594 C 265.382812 242.457031 265.640625 242.957031 265.953125 243.429688 C 266.261719 243.902344 266.613281 244.339844 267.011719 244.742188 C 267.410156 245.144531 267.839844 245.503906 268.308594 245.816406 C 268.777344 246.132812 269.273438 246.402344 269.792969 246.621094 C 270.316406 246.835938 270.855469 247.003906 271.40625 247.113281 C 271.960938 247.222656 272.523438 247.28125 273.085938 247.28125 C 273.652344 247.28125 274.210938 247.222656 274.765625 247.113281 C 275.320312 247.003906 275.859375 246.835938 276.378906 246.621094 C 276.902344 246.402344 277.398438 246.132812 277.863281 245.816406 C 278.332031 245.503906 278.765625 245.144531 279.164062 244.742188 C 279.558594 244.339844 279.914062 243.902344 280.222656 243.429688 C 280.53125 242.957031 280.792969 242.457031 281.003906 241.933594 C 281.214844 241.410156 281.371094 240.871094 281.476562 240.316406 C 281.578125 239.761719 281.628906 239.199219 281.617188 238.636719 L 281.617188 208.839844 C 281.617188 201.40625 286.953125 196.074219 294.464844 196.074219 C 301.980469 196.074219 307.3125 201.40625 307.3125 208.839844 L 307.3125 238.636719 C 307.308594 239.171875 307.351562 239.699219 307.441406 240.226562 C 307.535156 240.753906 307.675781 241.265625 307.867188 241.765625 C 308.054688 242.265625 308.289062 242.742188 308.566406 243.199219 C 308.847656 243.65625 309.167969 244.078125 309.527344 244.476562 C 309.886719 244.871094 310.277344 245.230469 310.707031 245.550781 C 311.132812 245.875 311.585938 246.152344 312.066406 246.390625 C 312.542969 246.625 313.042969 246.816406 313.558594 246.960938 C 314.070312 247.101562 314.597656 247.199219 315.128906 247.242188 C 315.410156 247.265625 315.695312 247.277344 315.980469 247.277344 C 316.539062 247.265625 317.089844 247.203125 317.640625 247.085938 C 318.1875 246.96875 318.714844 246.800781 319.230469 246.578125 C 319.742188 246.355469 320.230469 246.085938 320.691406 245.769531 C 321.152344 245.453125 321.578125 245.09375 321.964844 244.691406 C 322.355469 244.289062 322.703125 243.855469 323.007812 243.386719 C 323.3125 242.917969 323.566406 242.421875 323.773438 241.902344 C 323.980469 241.382812 324.136719 240.847656 324.238281 240.300781 C 324.339844 239.75 324.386719 239.195312 324.378906 238.636719 L 324.378906 221.589844 C 324.378906 214.160156 330.394531 207.390625 337.226562 207.390625 C 344.738281 207.390625 350.070312 212.710938 350.070312 220.144531 L 350.070312 298.3125 C 350.070312 328.09375 327.113281 357.523438 298.597656 357.523438 C 298.492188 357.519531 298.386719 357.519531 298.28125 357.523438 C 297.71875 357.542969 289.210938 357.617188 281.402344 357.65625 C 273.59375 357.695312 266.164062 357.71875 264.324219 357.753906 C 234.742188 358.273438 220.058594 355.3125 203.25 343.023438 C 186.441406 330.734375 167.367188 307.722656 134.199219 268.597656 C 134.128906 268.507812 134.054688 268.421875 133.980469 268.332031 C 127.105469 260.859375 126.078125 250.828125 132.265625 244.113281 C 138.511719 237.324219 149.382812 236.761719 156.144531 242.929688 C 156.285156 243.058594 156.429688 243.179688 156.578125 243.296875 C 156.167969 242.96875 158.804688 245.519531 161.324219 248.375 C 163.847656 251.230469 166.878906 254.800781 169.792969 258.277344 C 175.617188 265.230469 180.9375 271.777344 180.9375 271.777344 C 181.496094 272.460938 182.140625 273.042969 182.875 273.523438 C 183.613281 274.003906 184.402344 274.363281 185.25 274.601562 C 186.097656 274.839844 186.960938 274.941406 187.839844 274.914062 C 188.71875 274.882812 189.574219 274.722656 190.402344 274.429688 C 191.230469 274.136719 191.996094 273.722656 192.699219 273.195312 C 193.402344 272.664062 194.007812 272.039062 194.515625 271.324219 C 195.023438 270.605469 195.410156 269.828125 195.679688 268.992188 C 195.949219 268.15625 196.082031 267.296875 196.085938 266.417969 L 196.085938 123.414062 C 196.085938 115.980469 201.417969 110.644531 208.933594 110.644531 Z M 208.933594 110.644531 " fill-opacity="1" fill-rule="nonzero"/></g></svg>