<svg xmlns="http://www.w3.org/2000/svg" xmlns:xlink="http://www.w3.org/1999/xlink" width="500" zoomAndPan="magnify" viewBox="0 0 375 374.999991" height="500" preserveAspectRatio="xMidYMid meet" version="1.0"><defs><g/><clipPath id="5e3d4a48e4"><path d="M 61.042969 61.042969 L 313.792969 61.042969 L 313.792969 313.792969 L 61.042969 313.792969 Z M 61.042969 61.042969 " clip-rule="nonzero"/></clipPath><clipPath id="aaba9df40f"><path d="M 164.101562 0 L 210.601562 0 L 210.601562 375 L 164.101562 375 Z M 164.101562 0 " clip-rule="nonzero"/></clipPath><clipPath id="aa4ce02a90"><path d="M 153.390625 242.894531 L 226.140625 242.894531 L 226.140625 257.894531 L 153.390625 257.894531 Z M 153.390625 242.894531 " clip-rule="nonzero"/></clipPath><clipPath id="5dda83d8ff"><path d="M 155.734375 234.785156 L 256.984375 234.785156 L 256.984375 243.035156 L 155.734375 243.035156 Z M 155.734375 234.785156 " clip-rule="nonzero"/></clipPath><clipPath id="2948a529cb"><path d="M 151.964844 116.902344 L 224.714844 116.902344 L 224.714844 131.902344 L 151.964844 131.902344 Z M 151.964844 116.902344 " clip-rule="nonzero"/></clipPath><clipPath id="7c15b5eaa8"><path d="M 116.070312 132.167969 L 218.820312 132.167969 L 218.820312 140.417969 L 116.070312 140.417969 Z M 116.070312 132.167969 " clip-rule="nonzero"/></clipPath></defs><rect x="-37.5" width="450" fill="#ffffff" y="-37.499999" height="449.999989" fill-opacity="1"/><rect x="-37.5" width="450" fill="#ffffff" y="-37.499999" height="449.999989" fill-opacity="1"/><rect x="-37.5" width="450" fill="#fbfaf9" y="-37.499999" height="449.999989" fill-opacity="1"/><rect x="-37.5" width="450" fill="#ffffff" y="-37.499999" height="449.999989" fill-opacity="1"/><rect x="-37.5" width="450" fill="#ffffff" y="-37.499999" height="449.999989" fill-opacity="1"/><rect x="-37.5" width="450" fill="#ffffff" y="-37.499999" height="449.999989" fill-opacity="1"/><g clip-path="url(#5e3d4a48e4)"><path fill="#000000" d="M 187.417969 61.042969 C 117.734375 61.042969 61.042969 117.734375 61.042969 187.417969 C 61.042969 257.101562 117.734375 313.792969 187.417969 313.792969 C 257.101562 313.792969 313.792969 257.101562 313.792969 187.417969 C 313.792969 117.734375 257.101562 61.042969 187.417969 61.042969 Z M 187.417969 305.894531 C 122.089844 305.894531 68.941406 252.746094 68.941406 187.417969 C 68.941406 122.089844 122.089844 68.941406 187.417969 68.941406 C 252.746094 68.941406 305.894531 122.089844 305.894531 187.417969 C 305.894531 252.746094 252.746094 305.894531 187.417969 305.894531 Z M 187.417969 305.894531 " fill-opacity="1" fill-rule="nonzero"/></g><path fill="#000000" d="M 187.417969 288.125 C 131.886719 288.125 86.714844 242.949219 86.714844 187.417969 C 86.714844 185.234375 84.945312 183.46875 82.765625 183.46875 C 80.582031 183.46875 78.816406 185.234375 78.816406 187.417969 C 78.816406 247.300781 127.539062 296.023438 187.417969 296.023438 C 189.601562 296.023438 191.367188 294.253906 191.367188 292.074219 C 191.367188 289.890625 189.601562 288.125 187.417969 288.125 Z M 187.417969 288.125 " fill-opacity="1" fill-rule="nonzero"/><path fill="#000000" d="M 187.417969 78.816406 C 185.234375 78.816406 183.46875 80.582031 183.46875 82.765625 C 183.46875 84.945312 185.234375 86.714844 187.417969 86.714844 C 242.949219 86.714844 288.125 131.886719 288.125 187.417969 C 288.125 189.601562 289.890625 191.367188 292.074219 191.367188 C 294.253906 191.367188 296.023438 189.601562 296.023438 187.417969 C 296.023438 127.539062 247.300781 78.816406 187.417969 78.816406 Z M 187.417969 78.816406 " fill-opacity="1" fill-rule="nonzero"/><path fill="#000000" d="M 197.617188 97.214844 C 197.519531 97.1875 197.410156 97.203125 197.3125 97.183594 C 194.011719 96.820312 190.679688 96.585938 187.320312 96.585938 C 171.472656 96.585938 155.804688 100.792969 142.003906 108.757812 C 98.644531 133.808594 83.726562 189.46875 108.757812 232.828125 C 123.238281 257.90625 148.949219 274.441406 177.414062 277.644531 C 177.605469 277.675781 177.796875 277.722656 177.992188 277.722656 C 178.015625 277.722656 178.039062 277.714844 178.066406 277.714844 C 181.195312 278.042969 184.347656 278.257812 187.527344 278.257812 C 203.371094 278.257812 219.039062 274.050781 232.839844 266.09375 C 276.203125 241.035156 291.117188 185.371094 266.085938 142.011719 C 251.625 116.988281 226.003906 100.46875 197.617188 97.214844 Z M 259.234375 145.957031 C 260.425781 148.015625 261.457031 150.128906 262.449219 152.242188 L 246.574219 179.734375 L 204.136719 106.226562 C 227.058594 110.992188 247.3125 125.308594 259.234375 145.957031 Z M 160.050781 234.808594 L 132.691406 187.417969 L 160.050781 140.023438 L 214.53125 140.027344 L 242.011719 187.640625 L 214.777344 234.808594 Z M 145.953125 115.597656 C 158.550781 108.328125 172.859375 104.484375 187.320312 104.484375 C 189.628906 104.484375 191.921875 104.617188 194.199219 104.804688 L 209.972656 132.128906 L 125.679688 132.125 C 131.390625 125.742188 138.140625 120.113281 145.953125 115.597656 Z M 119.496094 140.023438 L 150.933594 140.023438 L 108.632812 213.289062 C 100.425781 188.289062 104.835938 161.113281 119.496094 140.023438 Z M 115.597656 228.878906 C 114.410156 226.824219 113.375 224.710938 112.382812 222.597656 L 128.132812 195.316406 L 170.40625 268.542969 C 147.609375 263.714844 127.46875 249.4375 115.597656 228.878906 Z M 228.878906 259.246094 C 216.285156 266.519531 201.984375 270.355469 187.519531 270.355469 C 185.125 270.355469 182.742188 270.214844 180.375 270.007812 L 164.617188 242.707031 L 249.164062 242.707031 C 243.449219 249.097656 236.695312 254.734375 228.878906 259.246094 Z M 255.34375 234.808594 L 223.898438 234.808594 L 266.199219 161.546875 C 274.40625 186.542969 270 213.722656 255.34375 234.808594 Z M 255.34375 234.808594 " fill-opacity="1" fill-rule="nonzero"/><g clip-path="url(#aaba9df40f)"><path fill="#ffffff" d="M 164.101562 0.0078125 L 210.601562 0.0078125 L 210.601562 374.992188 L 164.101562 374.992188 L 164.101562 0.0078125 " fill-opacity="1" fill-rule="nonzero"/></g><g fill="#000000" fill-opacity="1"><g transform="translate(148.097112, 220.363973)"><g><path d="M 8.269531 0 C 9.277344 0 9.722656 -0.335938 10.285156 -1.566406 L 39.566406 -67.398438 L 39.679688 -67.398438 L 56.222656 -30.289062 L 63.488281 -30.289062 L 40.910156 -78.914062 C 40.574219 -79.695312 40.238281 -80.253906 39.792969 -80.253906 L 39.457031 -80.253906 C 38.898438 -80.253906 38.5625 -79.695312 38.226562 -78.914062 L 2.125 -1.566406 C 1.789062 -0.671875 2.125 0 3.019531 0 Z M 24.589844 -28.167969 L 21.683594 -21.796875 L 59.6875 -21.796875 L 68.851562 -1.566406 C 69.523438 -0.335938 69.859375 0 70.863281 0 L 76.007812 0 C 77.011719 0 77.460938 -0.671875 77.011719 -1.566406 L 64.605469 -28.167969 Z M 24.589844 -28.167969 "/></g></g></g><g clip-path="url(#aa4ce02a90)"><path fill="#ffffff" d="M 153.402344 242.894531 L 226.125 242.894531 L 226.125 257.894531 L 153.402344 257.894531 L 153.402344 242.894531 " fill-opacity="1" fill-rule="nonzero"/></g><g clip-path="url(#5dda83d8ff)"><path fill="#000000" d="M 155.804688 234.785156 L 256.917969 234.785156 L 256.917969 243.035156 L 155.804688 243.035156 L 155.804688 234.785156 " fill-opacity="1" fill-rule="nonzero"/></g><g clip-path="url(#2948a529cb)"><path fill="#ffffff" d="M 151.976562 116.902344 L 224.703125 116.902344 L 224.703125 131.902344 L 151.976562 131.902344 L 151.976562 116.902344 " fill-opacity="1" fill-rule="nonzero"/></g><g clip-path="url(#7c15b5eaa8)"><path fill="#000000" d="M 116.125 132.167969 L 218.765625 132.167969 L 218.765625 140.417969 L 116.125 140.417969 L 116.125 132.167969 " fill-opacity="1" fill-rule="nonzero"/></g></svg>